<?xml version="1.0" standalone="no"?>
<!DOCTYPE svg PUBLIC "-//W3C//DTD SVG 20010904//EN"
 "http://www.w3.org/TR/2001/REC-SVG-20010904/DTD/svg10.dtd">
<svg version="1.0" xmlns="http://www.w3.org/2000/svg"
 width="260.000000pt" height="260.000000pt" viewBox="0 0 260.000000 260.000000"
 preserveAspectRatio="xMidYMid meet">
<metadata>
Created by potrace 1.11, written by Peter Selinger 2001-2013
</metadata>
<g transform="translate(0.000000,260.000000) scale(0.100000,-0.100000)"
fill="#000000" stroke="none">
<path d="M1180 2574 c-315 -40 -555 -151 -765 -355 -258 -250 -389 -559 -388
-919 0 -347 128 -656 373 -902 239 -239 554 -368 900 -368 271 0 480 63 712
215 222 146 398 372 492 633 91 254 95 557 10 819 -119 367 -418 676 -782 807
-149 53 -416 87 -552 70z m195 -395 c132 -24 251 -115 308 -237 30 -63 32 -74
32 -177 0 -105 -2 -114 -33 -178 -19 -37 -57 -93 -85 -123 l-52 -55 -64 65
-64 65 40 44 c55 60 74 99 80 166 9 99 -51 199 -143 237 -19 8 -62 14 -96 14
-173 0 -288 -182 -212 -334 9 -17 137 -152 284 -301 147 -148 278 -290 293
-315 95 -167 68 -380 -65 -513 -164 -164 -423 -167 -591 -8 -170 161 -173 427
-6 605 l54 57 64 -65 64 -65 -47 -51 c-62 -70 -84 -141 -68 -220 30 -140 163
-219 305 -179 49 13 115 73 138 124 24 51 25 154 3 198 -9 18 -139 156 -288
307 -289 292 -312 323 -337 441 -54 249 142 493 407 508 11 0 47 -4 79 -10z"/>
</g>
</svg>
