<?xml version="1.0" encoding="utf-8"?>
<!-- Generator: Adobe Illustrator 20.1.0, SVG Export Plug-In . SVG Version: 6.00 Build 0)  -->
<svg version="1.1" id="Layer_1" xmlns="http://www.w3.org/2000/svg" xmlns:xlink="http://www.w3.org/1999/xlink" x="0px" y="0px"
	 viewBox="0 0 498.1 238.6" style="enable-background:new 0 0 498.1 238.6;" xml:space="preserve">
<style type="text/css">
	.st0{fill:#FFFFFF;}
</style>
<g>
	<g>
		<path class="st0" d="M218.6,35.6c2.1,0.9,4,2.3,5.9,4.1l-5.5,5.5c-1.8-2.2-4.4-3.3-7.6-3.3c-3.3,0-5.4,0.8-6.3,2.3s-0.9,2.9,0,4
			s3,1.9,6.3,2.5c3.5,0.4,6.6,1.5,9.4,3.4s4.2,5,4.2,9.1c0,3.3-1.5,6.1-4.5,8.5s-6.5,3.5-10.5,3.5c-3.8,0-7-0.5-9.5-1.6
			s-4.7-2.5-6.5-4.4l5.5-5.5c1.8,2.2,4.9,3.5,9.3,3.8c3.6,0,5.9-0.8,6.8-2.3s0.9-3.1,0-4.6s-3.2-2.5-6.8-2.9c-3.3-0.4-6.3-1.4-9-3
			s-4.1-4.5-4.1-8.5c0-3.6,1.5-6.5,4.6-8.7s6.3-3.3,9.6-3.3C213.5,34.2,216.5,34.7,218.6,35.6z"/>
		<path class="st0" d="M267.7,34.2v7.6h-13.6v33.3h-8.2V41.8h-13.6v-7.6H267.7z"/>
		<path class="st0" d="M285.1,34.2V58c0,3.1,0.9,5.4,2.7,6.8c1.8,1.5,4.1,2.2,6.8,2.2c2.7,0,5-0.7,6.8-2.2s2.7-3.7,2.7-6.8V34.3h8.2
			v25.9c0,4.2-1.7,7.7-5,10.6c-3.4,2.9-7.6,4.4-12.7,4.4s-9.3-1.5-12.7-4.4c-3.4-2.9-5-6.5-5-10.6V34.3L285.1,34.2L285.1,34.2z"/>
		<path class="st0" d="M324.6,75.1V34.2h15.8c12.7,0,19.1,6.8,19.1,20.5c0,13.6-6.4,20.4-19.1,20.4H324.6z M340.3,67
			c7.3,0,10.9-4.1,10.9-12.3c0-8.2-3.7-12.3-10.9-12.3h-7.6V67H340.3z"/>
		<path class="st0" d="M370.4,75.1V34.2h30v7.6h-21.9v8.7h16.4v7.6h-16.4v9.3h21.8V75L370.4,75.1L370.4,75.1z"/>
		<path class="st0" d="M412,75.1V34.2h2.7l25.6,25.6V34.2h8.2v40.9h-3l-25.4-25.4v25.4H412z"/>
		<path class="st0" d="M493.3,34.2v7.6h-13.6v33.3h-8.2V41.8h-13.6v-7.6H493.3z"/>
		<path class="st0" d="M217.3,100.2c2.1,0.9,4,2.3,5.9,4.1l-5.5,5.5c-1.8-2.2-4.4-3.3-7.6-3.3c-3.3,0-5.4,0.8-6.3,2.3s-0.9,2.9,0,4
			s3,1.9,6.3,2.5c3.5,0.4,6.6,1.5,9.4,3.4s4.2,5,4.2,9.1c0,3.3-1.5,6.1-4.5,8.5s-6.5,3.5-10.5,3.5c-3.8,0-7-0.5-9.5-1.6
			s-4.7-2.5-6.5-4.4l5.5-5.5c1.8,2.2,4.9,3.5,9.3,3.8c3.6,0,5.9-0.8,6.8-2.3s0.9-3.1,0-4.6s-3.2-2.5-6.8-2.9c-3.3-0.4-6.3-1.4-9-3
			s-4.1-4.5-4.1-8.5c0-3.6,1.5-6.5,4.6-8.7s6.3-3.3,9.6-3.3C212.3,98.9,215.2,99.3,217.3,100.2z"/>
		<path class="st0" d="M242.7,98.9v23.7c0,3.1,0.9,5.4,2.7,6.8c1.8,1.5,4.1,2.2,6.8,2.2c2.7,0,5-0.7,6.8-2.2
			c1.8-1.5,2.7-3.7,2.7-6.8V98.9h8.2v25.9c0,4.2-1.7,7.7-5,10.6c-3.4,2.9-7.6,4.4-12.7,4.4c-5.1,0-9.3-1.5-12.7-4.4
			c-3.4-2.9-5-6.5-5-10.6V98.9H242.7z"/>
		<path class="st0" d="M286.9,133.9c-3.9-3.9-5.9-8.8-5.9-14.7c0-5.7,2-10.6,5.9-14.5s8.8-5.9,14.5-5.9c5.8,0,10.8,1.8,15,5.5
			l-5.5,6c-2.8-2.2-6-3.3-9.6-3.3c-3.7,0-6.6,1.2-8.9,3.4c-2.2,2.3-3.4,5.2-3.4,8.7c0,3.8,1.2,6.8,3.4,9.1c2.3,2.2,5.2,3.4,8.9,3.4
			c3.7,0,6.8-1.1,9.5-3.2l5.5,6c-4.2,3.6-9.2,5.5-15,5.5C295.6,139.8,290.8,137.8,286.9,133.9z"/>
		<path class="st0" d="M330.4,133.9c-3.9-3.9-5.9-8.8-5.9-14.7c0-5.7,2-10.6,5.9-14.5s8.8-5.9,14.5-5.9c5.8,0,10.8,1.8,15,5.5
			l-5.5,6c-2.8-2.2-6-3.3-9.6-3.3c-3.7,0-6.6,1.2-8.9,3.4s-3.4,5.2-3.4,8.7c0,3.8,1.2,6.8,3.4,9.1c2.3,2.2,5.2,3.4,8.9,3.4
			s6.8-1.1,9.5-3.2l5.5,6c-4.2,3.6-9.2,5.5-15,5.5C339.2,139.8,334.3,137.8,330.4,133.9z"/>
		<path class="st0" d="M370.4,139.8V98.9h30v7.6h-21.9v8.7h16.4v7.6h-16.4v9.3h21.8v7.6L370.4,139.8L370.4,139.8z"/>
		<path class="st0" d="M435.4,100.2c2.1,0.9,4,2.3,5.9,4.1l-5.5,5.5c-1.8-2.2-4.4-3.3-7.6-3.3c-3.3,0-5.4,0.8-6.3,2.3
			c-0.9,1.5-0.9,2.9,0,4s3,1.9,6.3,2.5c3.5,0.4,6.6,1.5,9.4,3.4c2.8,1.9,4.2,5,4.2,9.1c0,3.3-1.5,6.1-4.5,8.5s-6.5,3.5-10.5,3.5
			c-3.8,0-7-0.5-9.5-1.6s-4.7-2.5-6.5-4.4l5.5-5.5c1.8,2.2,4.9,3.5,9.3,3.8c3.6,0,5.9-0.8,6.8-2.3c0.9-1.5,0.9-3.1,0-4.6
			s-3.2-2.5-6.8-2.9c-3.3-0.4-6.3-1.4-9-3s-4.1-4.5-4.1-8.5c0-3.6,1.5-6.5,4.6-8.7s6.3-3.3,9.6-3.3
			C430.3,98.9,433.3,99.3,435.4,100.2z"/>
		<path class="st0" d="M475,100.2c2.1,0.9,4,2.3,5.9,4.1l-5.5,5.5c-1.8-2.2-4.4-3.3-7.6-3.3c-3.3,0-5.4,0.8-6.3,2.3
			c-0.9,1.5-0.9,2.9,0,4s3,1.9,6.3,2.5c3.5,0.4,6.6,1.5,9.4,3.4c2.8,1.9,4.2,5,4.2,9.1c0,3.3-1.5,6.1-4.5,8.5s-6.5,3.5-10.5,3.5
			c-3.8,0-7-0.5-9.5-1.6s-4.7-2.5-6.5-4.4l5.5-5.5c1.8,2.2,4.9,3.5,9.3,3.8c3.6,0,5.9-0.8,6.8-2.3c0.9-1.5,0.9-3.1,0-4.6
			s-3.2-2.5-6.8-2.9c-3.3-0.4-6.3-1.4-9-3s-4.1-4.5-4.1-8.5c0-3.6,1.5-6.5,4.6-8.7s6.3-3.3,9.6-3.3C469.9,98.9,472.9,99.3,475,100.2
			z"/>
		<path class="st0" d="M203.4,163.5v33.3h21.8v7.6h-30v-40.9H203.4z"/>
		<path class="st0" d="M236.2,163.5h8.2v40.9h-8.2V163.5z"/>
		<path class="st0" d="M257.5,204.4v-40.9h2.7l25.6,25.6v-25.6h8.2v40.9h-3L265.7,179v25.4H257.5z"/>
		<path class="st0" d="M305.9,163.5h8.2v16.4l13.6-16.4h9.2l-16,19.1l19.4,21.8h-10.6l-15.5-17.7v17.7H306v-40.9H305.9z"/>
	</g>
	<g>
		<polygon class="st0" points="59.1,135.4 59.1,135.4 42.8,119.1 		"/>
		<path class="st0" d="M11.5,84.6c-1.6-3-3-6.2-4-9.5C8.6,78.4,9.9,81.6,11.5,84.6z"/>
		<path class="st0" d="M11.1,154c1.6-3,3.6-6,5.8-8.7C14.7,148.1,12.8,151,11.1,154z"/>
		<path class="st0" d="M7.2,163.5c1-3.3,2.3-6.4,4-9.5C9.5,157.1,8.2,160.3,7.2,163.5z"/>
		<path class="st0" d="M5.4,53.8L5.4,53.8c-0.2,2.1-0.3,4.2-0.3,6.3c0.1,5.1,0.9,10.1,2.5,15c-1.5-4.9-2.3-9.9-2.5-15
			C5.1,58,5.2,55.9,5.4,53.8z"/>
		<path class="st0" d="M59.1,135.4L59.1,135.4L59.1,135.4l22.2,22.2c3.8,3.8,6.5,8.4,7.9,13.3c-1.4-4.9-4.1-9.4-7.9-13.3L59.1,135.4
			z"/>
		<path class="st0" d="M27.6,134.3l-7,7c-1.3,1.3-2.5,2.6-3.6,4c1.1-1.4,2.3-2.7,3.6-4L27.6,134.3z"/>
		<polygon class="st0" points="74.7,88 74.7,88 81.7,81 		"/>
		<path class="st0" d="M97.6,218.3c2.8-2.8,5.2-5.8,7.3-9c3.1-4.8,5.3-9.9,6.8-15.2c0.9-3.5,1.5-7,1.8-10.6c0.1-1.9,0.2-3.8,0.1-5.7
			l0,0c-0.1-3.3-0.5-6.6-1.3-9.9c-2.2-9.8-7-19-14.6-26.6l-21.8-21.8l0,0l0,0l-16.3-16.3l0,0l-0.4-0.4l-6.9-6.9L37.3,81
			c-1.5-1.5-2.9-3.2-4-4.9c-1.1-1.7-2.1-3.6-2.9-5.5c-1.1-2.8-1.9-5.8-2.2-8.8c-0.1-1-0.1-2-0.1-3c0-5,1.2-10,3.6-14.6
			c1.3-2.4,2.9-4.7,4.9-6.8c0.2-0.2,0.4-0.5,0.7-0.8c0.8-0.8,1.6-1.5,2.4-2.2c2.5-2,5.2-3.6,8-4.7c7.6-3.1,16.1-3.1,23.6,0
			c1.9,0.8,3.7,1.7,5.5,2.9c0.9,0.6,1.7,1.2,2.5,1.9c0.8,0.7,1.6,1.4,2.4,2.2c0.3,0.3,0.5,0.6,0.8,0.9c5.5,6,8.4,13.6,8.4,21.3
			c0,3-0.4,6-1.3,8.9c-0.9,2.9-2.2,5.7-3.9,8.3c-1.1,1.7-2.5,3.4-4,4.9l-7,7l0,0L91,104.3l7-7c1.3-1.3,2.4-2.6,3.6-3.9
			c7.8-9.5,11.9-20.9,12.3-32.5c0.2-6.7-0.8-13.4-3-19.9c-0.8-2.3-1.7-4.6-2.8-6.8c-0.8-1.7-1.8-3.3-2.8-4.9c-2.1-3.2-4.5-6.2-7.3-9
			C84.9,7.2,66.8,2.2,49.9,5.3c-2,0.4-3.9,0.8-5.9,1.4c-8.4,2.5-16.4,7-23,13.7c-4.1,4.1-7.4,8.7-9.9,13.6c-1.7,3.3-3,6.7-4,10.2
			c-0.9,3.2-1.4,6.4-1.7,9.7c-0.2,2.1-0.3,4.2-0.3,6.3c0.1,5.1,0.9,10.1,2.5,15c1,3.3,2.3,6.4,4,9.5c2.5,4.6,5.6,8.9,9.5,12.7
			l21.8,21.8l0,0l16.3,16.3l0,0l0,0l0,0l22.2,22.2c3.8,3.8,6.5,8.4,7.9,13.3c0.6,1.9,1,3.9,1.1,5.9c0.1,1,0.1,2,0.1,3
			c0,7-2.3,14-7,19.8c-0.7,0.8-1.4,1.6-2.2,2.4s-1.6,1.5-2.4,2.2c-1.6,1.3-3.4,2.5-5.2,3.4c-1.2,0.6-2.5,1.2-3.8,1.6
			c-8.6,3.1-18.3,2.4-26.4-2.2c-1.5-0.8-2.9-1.8-4.2-2.9c-0.8-0.7-1.6-1.4-2.4-2.2c-0.8-0.8-1.6-1.7-2.3-2.5c-1.3-1.6-2.4-3.3-3.3-5
			c-0.6-1.2-1.2-2.5-1.6-3.8c-3.4-9.2-2.3-19.7,3.2-28.1c1.1-1.7,2.5-3.4,4-4.9l7-7l-16.3-16.3l-7,7c-1.3,1.3-2.5,2.6-3.6,4
			c-2.3,2.8-4.2,5.7-5.8,8.7s-3,6.2-4,9.5s-1.7,6.6-2.1,9.9c-0.2,1.7-0.3,3.4-0.4,5.1c0,1.6,0,3.1,0.1,4.7c0.2,3.8,0.8,7.6,1.9,11.4
			c0.9,3.1,2,6.1,3.4,9c0.2,0.4,0.3,0.8,0.5,1.2c2.5,4.9,5.8,9.5,9.9,13.6l0,0c0.1,0.1,0.2,0.2,0.4,0.3c8.2,8.1,18.4,13,29,14.8
			C66.8,236.2,84.7,231.2,97.6,218.3z"/>
	</g>
</g>
</svg>
