<?xml version="1.0" encoding="UTF-8" standalone="no"?>
<svg
   xmlns:dc="http://purl.org/dc/elements/1.1/"
   xmlns:cc="http://creativecommons.org/ns#"
   xmlns:rdf="http://www.w3.org/1999/02/22-rdf-syntax-ns#"
   xmlns:svg="http://www.w3.org/2000/svg"
   xmlns="http://www.w3.org/2000/svg"
   viewBox="0 0 60 60"
   height="48"
   width="48"
   xml:space="preserve"
   version="1.1"
   id="svg2"><metadata
     id="metadata8"><rdf:RDF><cc:Work
         rdf:about=""><dc:format>image/svg+xml</dc:format><dc:type
           rdf:resource="http://purl.org/dc/dcmitype/StillImage" /></cc:Work></rdf:RDF></metadata><defs
     id="defs6"><clipPath
       id="clipPath16"
       clipPathUnits="userSpaceOnUse"><path
         id="path18"
         d="M 0,48 48,48 48,0 0,0 0,48 Z" /></clipPath></defs><g
     transform="matrix(1.25,0,0,-1.25,0,60)"
     id="g10"><g
       id="g12"><g
         clip-path="url(#clipPath16)"
         id="g14"><g
           transform="translate(35.6328,29.0869)"
           id="g20"><path
             id="path22"
             style="fill:#ffffff;fill-opacity:1;fill-rule:nonzero;stroke:none"
             d="m 0,0 c -0.046,-0.378 -0.094,-0.754 -0.188,-1.084 -0.284,-1.036 -0.754,-1.978 -1.507,-2.778 -1.32,-1.367 -2.59,-2.685 -3.909,-4.002 -0.424,-0.425 -0.895,-0.897 -1.367,-1.273 -0.8,-0.611 -1.695,-0.941 -2.684,-1.083 -1.554,-0.235 -2.966,0.095 -4.284,0.989 -0.801,0.518 -1.414,1.225 -1.885,2.073 0.753,0.753 1.46,1.553 2.307,2.306 0.094,-0.187 0.142,-0.377 0.236,-0.517 0.8,-1.743 3.013,-2.356 4.615,-1.083 0.378,0.33 0.754,0.706 1.084,1.083 0.706,0.754 1.459,1.459 2.166,2.214 0.564,0.565 1.131,1.082 1.648,1.694 0.66,0.802 0.847,1.79 0.565,2.825 C -3.626,2.968 -5.228,3.955 -6.782,3.625 -7.488,3.483 -8.053,3.107 -8.524,2.59 -8.948,2.166 -9.372,1.694 -9.796,1.271 -9.843,1.224 -9.937,1.224 -9.984,1.224 c -0.707,0.282 -1.46,0.423 -2.214,0.47 -0.376,0 -0.8,0 -1.177,-0.047 l -0.329,0 c 0.187,0.189 0.376,0.378 0.516,0.566 0.896,0.894 1.791,1.79 2.638,2.731 1.036,1.084 2.308,1.696 3.768,1.884 0.047,0 0.141,0.047 0.188,0.047 l 0.99,0 c 0.047,0 0.142,-0.047 0.188,-0.047 C -4.852,6.734 -4.285,6.64 -3.72,6.404 -2.778,6.028 -2.025,5.415 -1.366,4.662 -0.753,3.955 -0.33,3.107 -0.094,2.213 0,1.836 0.048,1.459 0.141,1.084 L 0.141,0 0,0 Z" /></g><g
           transform="translate(12.3672,18.9131)"
           id="g24"><path
             id="path26"
             style="fill:#ffffff;fill-opacity:1;fill-rule:nonzero;stroke:none"
             d="m 0,0 c 0.095,0.378 0.143,0.754 0.236,1.132 0.236,1.036 0.753,1.977 1.506,2.731 1.462,1.507 2.92,3.014 4.428,4.521 1.366,1.412 3.06,2.072 4.992,1.884 1.741,-0.189 3.202,-0.989 4.286,-2.45 C 15.589,7.631 15.729,7.396 15.872,7.159 15.071,6.405 14.364,5.559 13.564,4.852 13.47,5.04 13.423,5.229 13.329,5.37 12.668,6.783 11.067,7.442 9.655,6.971 9.09,6.783 8.666,6.452 8.242,6.028 7.536,5.275 6.782,4.568 6.075,3.816 5.322,3.062 4.568,2.31 3.862,1.508 3.156,0.706 3.015,-0.281 3.25,-1.271 c 0.424,-1.696 2.166,-2.684 3.815,-2.212 0.613,0.187 1.129,0.563 1.555,0.988 0.422,0.424 0.847,0.895 1.271,1.317 0.047,0.048 0.187,0.048 0.235,0.048 0.848,-0.328 1.742,-0.47 2.684,-0.47 0.236,0 0.471,0.047 0.707,0.047 l 0.329,0 C 13.658,-1.741 13.517,-1.93 13.329,-2.119 12.434,-3.014 11.539,-3.955 10.645,-4.851 10.032,-5.461 9.372,-5.933 8.572,-6.263 8.054,-6.499 7.441,-6.64 6.877,-6.687 6.83,-6.687 6.736,-6.733 6.688,-6.733 l -0.989,0 c -0.047,0 -0.141,0.046 -0.189,0.046 C 4.946,-6.594 4.333,-6.499 3.815,-6.263 2.921,-5.887 2.12,-5.32 1.508,-4.52 0.895,-3.813 0.472,-2.967 0.236,-2.024 0.143,-1.647 0.095,-1.271 0,-0.894 L 0,0 Z" /></g><g
           transform="translate(24,45.9932)"
           id="g28"><path
             id="path30"
             style="fill:#ffffff;fill-opacity:1;fill-rule:nonzero;stroke:none"
             d="m 0,0 c -12.103,0 -21.993,-9.843 -21.993,-21.993 0,-12.151 9.843,-21.993 21.993,-21.993 12.15,0 21.993,9.842 21.993,21.993 C 21.993,-9.843 12.103,0 0,0 m 0,-45.493 c -12.951,0 -23.5,10.549 -23.5,23.5 0,12.951 10.549,23.5 23.5,23.5 12.951,0 23.5,-10.549 23.5,-23.5 0,-12.951 -10.549,-23.5 -23.5,-23.5" /></g></g></g></g></svg>