<?xml version="1.0" encoding="utf-8"?>
<!-- Generator: Adobe Illustrator 20.1.0, SVG Export Plug-In . SVG Version: 6.00 Build 0)  -->
<svg version="1.1" id="Layer_1" xmlns="http://www.w3.org/2000/svg" xmlns:xlink="http://www.w3.org/1999/xlink" x="0px" y="0px"
	 viewBox="0 0 502 244" style="enable-background:new 0 0 502 244;" xml:space="preserve">
<style type="text/css">
	.st0{fill:#FFFFFF;}
	.st1{fill:url(#SVGID_1_);}
	.st2{fill:url(#SVGID_2_);}
	.st3{fill:url(#SVGID_3_);}
	.st4{fill:url(#SVGID_4_);}
	.st5{fill:url(#SVGID_5_);}
	.st6{fill:url(#SVGID_6_);}
	.st7{fill:url(#SVGID_7_);}
	.st8{fill:url(#SVGID_8_);}
	.st9{fill:url(#SVGID_9_);}
</style>
<g>
	<g>
		<path class="st0" d="M220.6,38.3c2.1,0.9,4,2.3,5.9,4.1l-5.5,5.5c-1.8-2.2-4.4-3.3-7.6-3.3c-3.3,0-5.4,0.8-6.3,2.3s-0.9,2.9,0,4
			s3,1.9,6.3,2.5c3.5,0.4,6.6,1.5,9.4,3.4s4.2,5,4.2,9.1c0,3.3-1.5,6.1-4.5,8.5s-6.5,3.5-10.5,3.5c-3.8,0-7-0.5-9.5-1.6
			s-4.7-2.5-6.5-4.4l5.5-5.5c1.8,2.2,4.9,3.5,9.3,3.8c3.6,0,5.9-0.8,6.8-2.3s0.9-3.1,0-4.6c-0.9-1.5-3.2-2.5-6.8-2.9
			c-3.3-0.4-6.3-1.4-9-3s-4.1-4.5-4.1-8.5c0-3.6,1.5-6.5,4.6-8.7s6.3-3.3,9.6-3.3C215.5,36.9,218.5,37.4,220.6,38.3z"/>
		<path class="st0" d="M269.7,36.9v7.6h-13.6v33.3h-8.2V44.5h-13.6v-7.6H269.7z"/>
		<path class="st0" d="M287.1,36.9v23.8c0,3.1,0.9,5.4,2.7,6.8c1.8,1.5,4.1,2.2,6.8,2.2c2.7,0,5-0.7,6.8-2.2s2.7-3.7,2.7-6.8V37h8.2
			v25.9c0,4.2-1.7,7.7-5,10.6c-3.4,2.9-7.6,4.4-12.7,4.4c-5.1,0-9.3-1.5-12.7-4.4c-3.4-2.9-5-6.5-5-10.6V37L287.1,36.9L287.1,36.9z"
			/>
		<path class="st0" d="M326.6,77.8V36.9h15.8c12.7,0,19.1,6.8,19.1,20.5c0,13.6-6.4,20.4-19.1,20.4H326.6z M342.3,69.7
			c7.3,0,10.9-4.1,10.9-12.3c0-8.2-3.7-12.3-10.9-12.3h-7.6v24.6H342.3z"/>
		<path class="st0" d="M372.4,77.8V36.9h30v7.6h-21.9v8.7h16.4v7.6h-16.4v9.3h21.8v7.6L372.4,77.8L372.4,77.8z"/>
		<path class="st0" d="M414,77.8V36.9h2.7l25.6,25.6V36.9h8.2v40.9h-3l-25.4-25.4v25.4H414z"/>
		<path class="st0" d="M495.3,36.9v7.6h-13.6v33.3h-8.2V44.5h-13.6v-7.6H495.3z"/>
		<path class="st0" d="M219.3,102.9c2.1,0.9,4,2.3,5.9,4.1l-5.5,5.5c-1.8-2.2-4.4-3.3-7.6-3.3c-3.3,0-5.4,0.8-6.3,2.3s-0.9,2.9,0,4
			s3,1.9,6.3,2.5c3.5,0.4,6.6,1.5,9.4,3.4s4.2,5,4.2,9.1c0,3.3-1.5,6.1-4.5,8.5s-6.5,3.5-10.5,3.5c-3.8,0-7-0.5-9.5-1.6
			s-4.7-2.5-6.5-4.4l5.5-5.5c1.8,2.2,4.9,3.5,9.3,3.8c3.6,0,5.9-0.8,6.8-2.3s0.9-3.1,0-4.6c-0.9-1.5-3.2-2.5-6.8-2.9
			c-3.3-0.4-6.3-1.4-9-3s-4.1-4.5-4.1-8.5c0-3.6,1.5-6.5,4.6-8.7s6.3-3.3,9.6-3.3C214.3,101.6,217.2,102,219.3,102.9z"/>
		<path class="st0" d="M244.7,101.6v23.7c0,3.1,0.9,5.4,2.7,6.8c1.8,1.5,4.1,2.2,6.8,2.2c2.7,0,5-0.7,6.8-2.2s2.7-3.7,2.7-6.8v-23.7
			h8.2v25.9c0,4.2-1.7,7.7-5,10.6c-3.4,2.9-7.6,4.4-12.7,4.4c-5.1,0-9.3-1.5-12.7-4.4c-3.4-2.9-5-6.5-5-10.6v-25.9H244.7z"/>
		<path class="st0" d="M288.9,136.6c-3.9-3.9-5.9-8.8-5.9-14.7c0-5.7,2-10.6,5.9-14.5c3.9-3.9,8.8-5.9,14.5-5.9
			c5.8,0,10.8,1.8,15,5.5l-5.5,6c-2.8-2.2-6-3.3-9.6-3.3c-3.7,0-6.6,1.2-8.9,3.4c-2.2,2.3-3.4,5.2-3.4,8.7c0,3.8,1.2,6.8,3.4,9.1
			c2.3,2.2,5.2,3.4,8.9,3.4s6.8-1.1,9.5-3.2l5.5,6c-4.2,3.6-9.2,5.5-15,5.5C297.6,142.5,292.8,140.5,288.9,136.6z"/>
		<path class="st0" d="M332.4,136.6c-3.9-3.9-5.9-8.8-5.9-14.7c0-5.7,2-10.6,5.9-14.5c3.9-3.9,8.8-5.9,14.5-5.9
			c5.8,0,10.8,1.8,15,5.5l-5.5,6c-2.8-2.2-6-3.3-9.6-3.3c-3.7,0-6.6,1.2-8.9,3.4s-3.4,5.2-3.4,8.7c0,3.8,1.2,6.8,3.4,9.1
			c2.3,2.2,5.2,3.4,8.9,3.4c3.7,0,6.8-1.1,9.5-3.2l5.5,6c-4.2,3.6-9.2,5.5-15,5.5C341.2,142.5,336.3,140.5,332.4,136.6z"/>
		<path class="st0" d="M372.4,142.5v-40.9h30v7.6h-21.9v8.7h16.4v7.6h-16.4v9.3h21.8v7.6L372.4,142.5L372.4,142.5z"/>
		<path class="st0" d="M437.4,102.9c2.1,0.9,4,2.3,5.9,4.1l-5.5,5.5c-1.8-2.2-4.4-3.3-7.6-3.3c-3.3,0-5.4,0.8-6.3,2.3
			c-0.9,1.5-0.9,2.9,0,4s3,1.9,6.3,2.5c3.5,0.4,6.6,1.5,9.4,3.4c2.8,1.9,4.2,5,4.2,9.1c0,3.3-1.5,6.1-4.5,8.5s-6.5,3.5-10.5,3.5
			c-3.8,0-7-0.5-9.5-1.6s-4.7-2.5-6.5-4.4l5.5-5.5c1.8,2.2,4.9,3.5,9.3,3.8c3.6,0,5.9-0.8,6.8-2.3c0.9-1.5,0.9-3.1,0-4.6
			c-0.9-1.5-3.2-2.5-6.8-2.9c-3.3-0.4-6.3-1.4-9-3s-4.1-4.5-4.1-8.5c0-3.6,1.5-6.5,4.6-8.7s6.3-3.3,9.6-3.3
			C432.3,101.6,435.3,102,437.4,102.9z"/>
		<path class="st0" d="M477,102.9c2.1,0.9,4,2.3,5.9,4.1l-5.5,5.5c-1.8-2.2-4.4-3.3-7.6-3.3c-3.3,0-5.4,0.8-6.3,2.3
			c-0.9,1.5-0.9,2.9,0,4s3,1.9,6.3,2.5c3.5,0.4,6.6,1.5,9.4,3.4c2.8,1.9,4.2,5,4.2,9.1c0,3.3-1.5,6.1-4.5,8.5s-6.5,3.5-10.5,3.5
			c-3.8,0-7-0.5-9.5-1.6s-4.7-2.5-6.5-4.4l5.5-5.5c1.8,2.2,4.9,3.5,9.3,3.8c3.6,0,5.9-0.8,6.8-2.3c0.9-1.5,0.9-3.1,0-4.6
			c-0.9-1.5-3.2-2.5-6.8-2.9c-3.3-0.4-6.3-1.4-9-3s-4.1-4.5-4.1-8.5c0-3.6,1.5-6.5,4.6-8.7s6.3-3.3,9.6-3.3
			C471.9,101.6,474.9,102,477,102.9z"/>
		<path class="st0" d="M205.4,166.2v33.3h21.8v7.6h-30v-40.9H205.4z"/>
		<path class="st0" d="M238.2,166.2h8.2v40.9h-8.2V166.2z"/>
		<path class="st0" d="M259.5,207.1v-40.9h2.7l25.6,25.6v-25.6h8.2v40.9h-3l-25.3-25.4v25.4H259.5z"/>
		<path class="st0" d="M307.9,166.2h8.2v16.4l13.6-16.4h9.2l-16,19.1l19.4,21.8h-10.6l-15.5-17.7v17.7H308v-40.9H307.9z"/>
	</g>
	<g>
		
			<linearGradient id="SVGID_1_" gradientUnits="userSpaceOnUse" x1="990.351" y1="1738.8236" x2="1237.1586" y2="1738.8236" gradientTransform="matrix(4.489700e-11 1 -1 4.489700e-11 1791.7736 -991.7736)">
			<stop  offset="0" style="stop-color:#ED4483"/>
			<stop  offset="0.2684" style="stop-color:#F26963"/>
			<stop  offset="0.5836" style="stop-color:#F68E44"/>
			<stop  offset="0.8387" style="stop-color:#F9A530"/>
			<stop  offset="1" style="stop-color:#FAAD29"/>
		</linearGradient>
		<polygon class="st1" points="61.1,138.1 61.1,138.1 44.8,121.8 		"/>
		
			<linearGradient id="SVGID_2_" gradientUnits="userSpaceOnUse" x1="990.351" y1="1780.2736" x2="1237.1586" y2="1780.2736" gradientTransform="matrix(4.489700e-11 1 -1 4.489700e-11 1791.7736 -991.7736)">
			<stop  offset="0" style="stop-color:#ED4483"/>
			<stop  offset="0.2684" style="stop-color:#F26963"/>
			<stop  offset="0.5836" style="stop-color:#F68E44"/>
			<stop  offset="0.8387" style="stop-color:#F9A530"/>
			<stop  offset="1" style="stop-color:#FAAD29"/>
		</linearGradient>
		<path class="st2" d="M13.5,87.3c-1.6-3-3-6.2-4-9.5C10.6,81.1,11.9,84.3,13.5,87.3z"/>
		
			<linearGradient id="SVGID_3_" gradientUnits="userSpaceOnUse" x1="990.351" y1="1775.7736" x2="1237.1586" y2="1775.7736" gradientTransform="matrix(4.489700e-11 1 -1 4.489700e-11 1791.7736 -991.7736)">
			<stop  offset="0" style="stop-color:#ED4483"/>
			<stop  offset="0.2684" style="stop-color:#F26963"/>
			<stop  offset="0.5836" style="stop-color:#F68E44"/>
			<stop  offset="0.8387" style="stop-color:#F9A530"/>
			<stop  offset="1" style="stop-color:#FAAD29"/>
		</linearGradient>
		<path class="st3" d="M13.1,156.7c1.6-3,3.6-6,5.8-8.7C16.7,150.8,14.8,153.7,13.1,156.7z"/>
		
			<linearGradient id="SVGID_4_" gradientUnits="userSpaceOnUse" x1="990.351" y1="1780.5736" x2="1237.1586" y2="1780.5736" gradientTransform="matrix(4.489700e-11 1 -1 4.489700e-11 1791.7736 -991.7736)">
			<stop  offset="0" style="stop-color:#ED4483"/>
			<stop  offset="0.2684" style="stop-color:#F26963"/>
			<stop  offset="0.5836" style="stop-color:#F68E44"/>
			<stop  offset="0.8387" style="stop-color:#F9A530"/>
			<stop  offset="1" style="stop-color:#FAAD29"/>
		</linearGradient>
		<path class="st4" d="M9.2,166.2c1-3.3,2.3-6.4,4-9.5C11.5,159.8,10.2,163,9.2,166.2z"/>
		
			<linearGradient id="SVGID_5_" gradientUnits="userSpaceOnUse" x1="990.351" y1="1783.4236" x2="1237.1586" y2="1783.4236" gradientTransform="matrix(4.489700e-11 1 -1 4.489700e-11 1791.7736 -991.7736)">
			<stop  offset="0" style="stop-color:#ED4483"/>
			<stop  offset="0.2684" style="stop-color:#F26963"/>
			<stop  offset="0.5836" style="stop-color:#F68E44"/>
			<stop  offset="0.8387" style="stop-color:#F9A530"/>
			<stop  offset="1" style="stop-color:#FAAD29"/>
		</linearGradient>
		<path class="st5" d="M7.4,56.5L7.4,56.5c-0.2,2.1-0.3,4.2-0.3,6.3c0.1,5.1,0.9,10.1,2.5,15c-1.5-4.9-2.3-9.9-2.5-15
			C7.1,60.7,7.2,58.6,7.4,56.5z"/>
		
			<linearGradient id="SVGID_6_" gradientUnits="userSpaceOnUse" x1="990.351" y1="1715.6235" x2="1237.1586" y2="1715.6235" gradientTransform="matrix(4.489700e-11 1 -1 4.489700e-11 1791.7736 -991.7736)">
			<stop  offset="0" style="stop-color:#ED4483"/>
			<stop  offset="0.2684" style="stop-color:#F26963"/>
			<stop  offset="0.5836" style="stop-color:#F68E44"/>
			<stop  offset="0.8387" style="stop-color:#F9A530"/>
			<stop  offset="1" style="stop-color:#FAAD29"/>
		</linearGradient>
		<path class="st6" d="M61.1,138.1L61.1,138.1L61.1,138.1l22.2,22.2c3.8,3.8,6.5,8.4,7.9,13.3c-1.4-4.9-4.1-9.4-7.9-13.3L61.1,138.1
			z"/>
		
			<linearGradient id="SVGID_7_" gradientUnits="userSpaceOnUse" x1="990.351" y1="1767.4736" x2="1237.1586" y2="1767.4736" gradientTransform="matrix(4.489700e-11 1 -1 4.489700e-11 1791.7736 -991.7736)">
			<stop  offset="0" style="stop-color:#ED4483"/>
			<stop  offset="0.2684" style="stop-color:#F26963"/>
			<stop  offset="0.5836" style="stop-color:#F68E44"/>
			<stop  offset="0.8387" style="stop-color:#F9A530"/>
			<stop  offset="1" style="stop-color:#FAAD29"/>
		</linearGradient>
		<path class="st7" d="M29.6,137l-7,7c-1.3,1.3-2.5,2.6-3.6,4c1.1-1.4,2.3-2.7,3.6-4L29.6,137z"/>
		
			<linearGradient id="SVGID_8_" gradientUnits="userSpaceOnUse" x1="990.351" y1="1711.5736" x2="1237.1586" y2="1711.5736" gradientTransform="matrix(4.489700e-11 1 -1 4.489700e-11 1791.7736 -991.7736)">
			<stop  offset="0" style="stop-color:#ED4483"/>
			<stop  offset="0.2684" style="stop-color:#F26963"/>
			<stop  offset="0.5836" style="stop-color:#F68E44"/>
			<stop  offset="0.8387" style="stop-color:#F9A530"/>
			<stop  offset="1" style="stop-color:#FAAD29"/>
		</linearGradient>
		<polygon class="st8" points="76.7,90.7 76.7,90.7 83.7,83.7 		"/>
		
			<linearGradient id="SVGID_9_" gradientUnits="userSpaceOnUse" x1="61.3125" y1="792.9277" x2="61.3125" y2="563.0723" gradientTransform="matrix(1 0 0 -1 0 800)">
			<stop  offset="0" style="stop-color:#ED4483"/>
			<stop  offset="0.2684" style="stop-color:#F26963"/>
			<stop  offset="0.5836" style="stop-color:#F68E44"/>
			<stop  offset="0.8387" style="stop-color:#F9A530"/>
			<stop  offset="1" style="stop-color:#FAAD29"/>
		</linearGradient>
		<path class="st9" d="M99.6,221c2.8-2.8,5.2-5.8,7.3-9c3.1-4.8,5.3-9.9,6.8-15.2c0.9-3.5,1.5-7,1.8-10.6c0.1-1.9,0.2-3.8,0.1-5.7
			l0,0c-0.1-3.3-0.5-6.6-1.3-9.9c-2.2-9.8-7-19-14.6-26.6l-21.8-21.8l0,0l0,0l-16.3-16.3l0,0l-0.4-0.4l-6.9-6.9l-15-14.9
			c-1.5-1.5-2.9-3.2-4-4.9c-1.1-1.7-2.1-3.6-2.9-5.5c-1.1-2.8-1.9-5.8-2.2-8.8c-0.1-1-0.1-2-0.1-3c0-5,1.2-10,3.6-14.6
			c1.3-2.4,2.9-4.7,4.9-6.8c0.2-0.2,0.4-0.5,0.7-0.8c0.8-0.8,1.6-1.5,2.4-2.2c2.5-2,5.2-3.6,8-4.7c7.6-3.1,16.1-3.1,23.6,0
			c1.9,0.8,3.7,1.7,5.5,2.9c0.9,0.6,1.7,1.2,2.5,1.9c0.8,0.7,1.6,1.4,2.4,2.2c0.3,0.3,0.5,0.6,0.8,0.9c5.5,6,8.4,13.6,8.4,21.3
			c0,3-0.4,6-1.3,8.9c-0.9,2.9-2.2,5.7-3.9,8.3c-1.1,1.7-2.5,3.4-4,4.9l-7,7l0,0L93,107l7-7c1.3-1.3,2.4-2.6,3.6-3.9
			c7.8-9.5,11.9-20.9,12.3-32.5c0.2-6.7-0.8-13.4-3-19.9c-0.8-2.3-1.7-4.6-2.8-6.8c-0.8-1.7-1.8-3.3-2.8-4.9c-2.1-3.2-4.5-6.2-7.3-9
			C86.9,9.9,68.8,4.9,51.9,8c-2,0.4-3.9,0.8-5.9,1.4c-8.4,2.5-16.4,7-23,13.7c-4.1,4.1-7.4,8.7-9.9,13.6c-1.7,3.3-3,6.7-4,10.2
			c-0.9,3.2-1.4,6.4-1.7,9.7c-0.2,2.1-0.3,4.2-0.3,6.3C7.2,68,8,73,9.6,77.9c1,3.3,2.3,6.4,4,9.5c2.5,4.6,5.6,8.9,9.5,12.7
			l21.8,21.8l0,0l16.3,16.3l0,0l0,0l0,0l22.2,22.2c3.8,3.8,6.5,8.4,7.9,13.3c0.6,1.9,1,3.9,1.1,5.9c0.1,1,0.1,2,0.1,3
			c0,7-2.3,14-7,19.8c-0.7,0.8-1.4,1.6-2.2,2.4s-1.6,1.5-2.4,2.2c-1.6,1.3-3.4,2.5-5.2,3.4c-1.2,0.6-2.5,1.2-3.8,1.6
			c-8.6,3.1-18.3,2.4-26.4-2.2c-1.5-0.8-2.9-1.8-4.2-2.9c-0.8-0.7-1.6-1.4-2.4-2.2c-0.8-0.8-1.6-1.7-2.3-2.5c-1.3-1.6-2.4-3.3-3.3-5
			c-0.6-1.2-1.2-2.5-1.6-3.8c-3.4-9.2-2.3-19.7,3.2-28.1c1.1-1.7,2.5-3.4,4-4.9l7-7l-16.3-16.3l-7,7c-1.3,1.3-2.5,2.6-3.6,4
			c-2.3,2.8-4.2,5.7-5.8,8.7s-3,6.2-4,9.5s-1.7,6.6-2.1,9.9c-0.2,1.7-0.3,3.4-0.4,5.1c0,1.6,0,3.1,0.1,4.7c0.2,3.8,0.8,7.6,1.9,11.4
			c0.9,3.1,2,6.1,3.4,9c0.2,0.4,0.3,0.8,0.5,1.2c2.5,4.9,5.8,9.5,9.9,13.6l0,0c0.1,0.1,0.2,0.2,0.4,0.3c8.2,8.1,18.4,13,29,14.8
			C68.8,238.9,86.7,233.9,99.6,221z"/>
	</g>
</g>
</svg>
