<?xml version="1.0" encoding="utf-8"?>
<!-- Generator: Adobe Illustrator 18.1.1, SVG Export Plug-In . SVG Version: 6.00 Build 0)  -->
<svg version="1.1" id="Layer_1" xmlns="http://www.w3.org/2000/svg" xmlns:xlink="http://www.w3.org/1999/xlink" x="0px" y="0px"
	 viewBox="0 283 612 197" enable-background="new 0 283 612 197" xml:space="preserve">
<g>
	<g>
		<g>
			<g>
				<path fill="#FFFFFF" d="M112.7,436.5l1.3,4.7c1.3,0.7,2.6,0.9,3.8,0.9s2.2-0.1,3-0.3c0.8-0.2,1.5-0.5,2.2-1
					c1.4-1,2.2-2.4,2.2-4.2c0-1.1-0.3-2.2-0.9-3.2c-0.6-0.9-1.5-1.8-3-2.4c-1.4-0.7-2.8-1.3-4.1-2c-1.3-0.5-2.4-1.2-3.5-2
					c-1.1-0.7-2-1.6-2.6-2.6c-0.7-1-1-2.2-1-3.6c0-1.4,0.2-2.6,0.8-3.6c0.6-1,1.2-1.9,2.1-2.5c1.9-1.4,4.1-2.2,6.7-2.2
					c2.2,0,4.6,0.5,7.3,1.5l0.7,7.3H125l-2-5.1c-1-0.4-2-0.7-3.1-0.7c-1.1,0-2,0.1-2.6,0.3c-0.7,0.1-1.3,0.4-1.9,0.9
					c-1.2,0.9-1.9,1.9-1.9,3.1c0,1.2,0.2,2.2,0.8,3c0.5,0.7,1.2,1.3,2,1.9c0.8,0.6,1.7,0.9,2.6,1.3c0.9,0.4,2,0.9,3.2,1.4
					c1.2,0.6,2.2,1.2,3.2,1.9c0.9,0.7,1.6,1.4,2.2,2.2c0.9,1.4,1.4,2.9,1.4,4.5s-0.3,3-0.9,4.1c-0.6,1.2-1.3,2.1-2.2,2.9
					c-1.9,1.5-4.3,2.4-7,2.4c-3.1,0-5.7-0.5-7.9-1.5l-0.5-7.3L112.7,436.5L112.7,436.5z"/>
			</g>
			<g>
				<path fill="#FFFFFF" d="M135.2,438.6l0.1-13.4h-3.7l-0.7-2.1l0.3-0.5h4.2l0.1-7.9l2.6-0.7l0.3,0.5c0,0.8-0.1,1.4-0.1,2.2v5.8
					h5.1c0.1,0,0.2,0.1,0.2,0.3v2.3h-5.3v15.3c0,0.9,0.1,1.4,0.5,1.8c0.3,0.3,0.9,0.4,1.7,0.4c0.8,0,1.8-0.4,2.9-1.2l0.8,2.4
					c-0.3,0.3-0.9,0.7-1.7,1c-0.7,0.4-1.8,0.5-3.2,0.5c-1.4,0-2.4-0.4-3.2-1.4c-0.8-1-1-2.2-1-3.7L135.2,438.6L135.2,438.6z"/>
			</g>
			<g>
				<path fill="#FFFFFF" d="M161.2,443.3c-1.5,1.3-3.4,2-5.5,2c-3.2,0-5.3-1.3-6.5-4c-0.4-0.9-0.6-2.2-0.6-3.5v-12.2h-2.5l-0.3-2.2
					l4.7-0.9l1.2,1.3v13.9c0,2.1,0.7,3.5,1.8,4.3c0.7,0.4,1.5,0.7,2.6,0.7c1.1,0,2.1-0.2,3-0.7c0.9-0.4,1.5-0.9,2-1.5v-14.9h-2.5
					l-0.3-2.2l4.7-0.9l1.2,1.4v17.8c0,0.7,0.4,1,1.1,1l0.9-0.1l0.4,1.6c-0.1,0.2-0.6,0.4-1,0.7c-0.4,0.2-1,0.4-1.6,0.4
					C162.4,445.2,161.6,444.6,161.2,443.3z"/>
			</g>
			<g>
				<path fill="#FFFFFF" d="M179.6,422.5c1.7,0,3.2,0.3,4.5,0.9v-9.5l-2.9,0.1l-0.3-2.4l5-0.9l1.3,1.4v29.1c0,0.9,0.3,1.4,1.1,1.4
					c0.2,0,0.7-0.1,1-0.2l0.6,1.9c-0.7,0.7-1.5,0.9-2.8,0.9s-2.1-0.7-2.4-2c-1.4,1.3-3.1,2-5,2c-1.9,0-3.4-0.3-4.5-1
					c-1.2-0.7-2.2-1.5-3-2.6c-1.5-2.1-2.2-4.6-2.2-7.7c0-3.3,0.9-6.1,2.4-8.1C174.1,423.6,176.5,422.5,179.6,422.5z M184.2,426.8
					c-1-1.1-2.4-1.7-4.3-1.7c-2.3,0-4.1,0.9-5.4,2.6c-1,1.5-1.5,3.5-1.5,5.8c0,3.9,1.2,6.5,3.4,7.9c0.9,0.5,1.8,0.8,2.9,0.8
					c2.2,0,3.9-0.8,4.9-2.4L184.2,426.8L184.2,426.8z"/>
			</g>
			<g>
				<path fill="#FFFFFF" d="M209.8,443.4c-1.6,1.2-3.8,1.8-6.6,1.8c-3.3,0-5.8-1.1-7.7-3.2c-1.6-2-2.5-4.6-2.5-7.8
					c0-3.3,0.9-6,2.6-8.1c1.9-2.3,4.3-3.4,7.4-3.4c2,0,3.6,0.5,4.9,1.6c1.4,1.1,2.1,2.6,2.1,4.4s-0.4,3.2-1.3,4.2
					c-0.9,1-2,1.8-3.3,2.3c-2.2,0.9-5.3,1.3-9,1.3c0.3,1.9,1.1,3.3,2.2,4.5c1.1,1.1,2.8,1.8,5,1.8c2.2,0,4-0.5,5.5-1.6L209.8,443.4z
					 M196.9,433.6c2.8,0,4.7-0.2,6.1-0.7c1.2-0.3,2.2-0.9,2.9-1.5s1.1-1.5,1.1-2.8c0-1.2-0.4-2.1-1.3-2.8c-0.7-0.5-1.6-0.8-2.6-0.8
					s-2,0.2-2.9,0.7c-0.9,0.4-1.5,1.1-2.1,1.9c-1.2,1.6-1.7,3.5-1.8,5.8h0.7V433.6z"/>
			</g>
			<g>
				<path fill="#FFFFFF" d="M224.8,425.2c-2.1,0-4,0.7-5.4,2v15.1l2.9,0.7v2.1h-8.1l-0.3-2l2.6-0.7v-17.1l-2.5,0.1l-0.4-2.2l4.7-0.9
					l1,2c1.8-1.2,3.7-1.9,5.8-1.9c2.2,0,3.7,0.6,4.9,1.7c1.2,1.1,1.8,2.9,1.8,5.1v13l2.9,0.7v2.1h-8.5l-0.1-2.1l2.9-0.7v-12.6
					C228.8,426.7,227.4,425.2,224.8,425.2z"/>
			</g>
			<g>
				<path fill="#FFFFFF" d="M240.2,438.6l0.1-13.4h-3.7l-0.7-2.1l0.3-0.5h4.2l0.1-7.9l2.6-0.7l0.3,0.5c0,0.8-0.1,1.4-0.1,2.2v5.8
					h5.1c0.1,0,0.2,0.1,0.2,0.3v2.3h-5.3v15.3c0,0.9,0.1,1.4,0.6,1.8c0.3,0.3,0.9,0.4,1.6,0.4c0.8,0,1.8-0.4,2.9-1.2l0.8,2.4
					c-0.3,0.3-0.9,0.7-1.6,1c-0.7,0.4-1.8,0.5-3.2,0.5s-2.4-0.4-3.2-1.4c-0.8-1-1-2.2-1-3.7L240.2,438.6L240.2,438.6z"/>
			</g>
		</g>
		<g>
			<g>
				<path fill="#FFFFFF" d="M275.8,439.4c0.5-0.3,0.9-0.7,1.2-1.2c0.3-0.4,0.4-1.1,0.4-1.7c0-0.7-0.1-1.2-0.4-1.6
					c-0.3-0.4-0.7-0.9-1.1-1.2c-0.7-0.4-1.8-1.2-3.6-2c-1.8-0.9-3.2-1.5-4.3-2.2c-1-0.5-2-1.2-2.6-2c-1.7-1.6-2.4-3.7-2.4-6.3
					c0-2.6,1.1-4.7,3.2-6.5c2-1.5,4.6-2.4,7.8-2.4c3,0,5.9,0.4,8.9,1.3l0.7,8.9h-4l-2.3-4.9c-1.2-0.1-2.4-0.3-3.7-0.3
					c-1.3,0-2.3,0.3-3.1,1c-0.8,0.7-1.1,1.4-1.1,2.2c0,0.9,0.2,1.4,0.7,2c0.3,0.4,0.9,0.9,1.5,1.3c0.8,0.4,2,1.1,3.7,2
					c1.6,0.8,3.1,1.5,4.2,2.2c1,0.7,1.9,1.3,2.5,2.1c1.4,1.4,2,3.2,2,5.2s-0.3,3.5-1,4.7c-0.7,1.2-1.6,2.2-2.8,3
					c-2.1,1.4-4.7,2.2-8,2.2c-3,0-6.1-0.7-9.7-2.2l0.9-9.1l4,0.3l0.4,5.3c0.4,0.1,1,0.2,1.7,0.4c0.7,0.1,1.4,0.3,2.3,0.3
					c0.9,0,1.5-0.1,2.2-0.2C274.7,439.9,275.4,439.7,275.8,439.4z"/>
			</g>
			<g>
				<path fill="#FFFFFF" d="M306.4,445.2c-1.9,0-3.2-0.8-3.9-2.2c-0.7,0.8-1.6,1.4-2.8,1.6c-1.1,0.4-2.2,0.5-3.2,0.5
					c-2.2,0-4-0.5-5.3-1.6c-1.3-1.2-2-3-2-5.3v-12h-2.4l-0.6-3.2l6.9-1.3l1.6,1.8V437c0,1.2,0.3,2.2,0.9,2.8
					c0.7,0.7,1.3,0.9,2.2,0.9c0.9,0,1.7-0.2,2.4-0.8c0.7-0.5,1.2-1.1,1.4-1.6v-12.1l-2.2,0.1l-0.6-3.2l6.7-1.3l1.6,1.8V440
					c0,0.7,0.2,1,0.8,1l0.7-0.1l0.9,2.6c-0.1,0.2-0.7,0.5-1.2,0.9C308.1,445.1,307.4,445.2,306.4,445.2z"/>
			</g>
			<g>
				<path fill="#FFFFFF" d="M330.3,442.7c-1.7,1.8-4.2,2.6-7.5,2.6c-2.6,0-4.9-0.9-6.9-2.6c-2.2-2.1-3.4-5-3.4-8.6
					c0-4.3,1.1-7.5,3.4-9.7c1.8-1.6,4.1-2.5,6.8-2.5c2.4,0,4.3,0.7,5.8,1.9c0.8,0.7,1.4,1.4,2,2.4l-5.7,3.1l-2-2.9
					c-1.4,0-2.5,0.7-3.4,2c-0.8,1.4-1.2,3.2-1.2,5.5c0,3.2,1,5.3,3,6.4c0.7,0.4,1.4,0.5,2.2,0.5s1.5-0.1,2.1-0.2
					c0.5-0.1,1.1-0.4,1.5-0.7c0.4-0.2,0.9-0.4,1.1-0.8s0.5-0.4,0.8-0.7c0.1,0.2,0.1,0.5,0.3,0.9s0.2,0.8,0.4,1.1
					c0.1,0.4,0.2,0.8,0.3,1.2C330,442.1,330.1,442.4,330.3,442.7z"/>
			</g>
			<g>
				<path fill="#FFFFFF" d="M350.3,442.7c-1.6,1.8-4.2,2.6-7.5,2.6c-2.8,0-5.1-0.9-6.9-2.6c-2.2-2.1-3.4-5-3.4-8.6
					c0-4.3,1.1-7.5,3.4-9.7c1.8-1.6,4.1-2.5,6.8-2.5c2.4,0,4.3,0.7,5.8,1.9c0.8,0.7,1.4,1.4,2,2.4l-5.7,3.1l-2-2.9
					c-1.4,0-2.5,0.7-3.4,2c-0.8,1.4-1.2,3.2-1.2,5.5c0,3.2,1,5.3,3,6.4c0.7,0.4,1.4,0.5,2.2,0.5c0.8,0,1.5-0.1,2.1-0.2
					c0.6-0.1,1.1-0.4,1.5-0.7c0.4-0.2,0.9-0.4,1.2-0.8c0.3-0.2,0.6-0.4,0.8-0.7c0.1,0.2,0.1,0.5,0.3,0.9c0.2,0.3,0.2,0.8,0.4,1.1
					s0.2,0.8,0.3,1.2C350.2,442.1,350.3,442.4,350.3,442.7z"/>
			</g>
			<g>
				<path fill="#FFFFFF" d="M358.5,435.7c0.4,3.4,2.3,5.1,5.7,5.1c1.4,0,2.6-0.3,3.4-0.9c0.9-0.6,1.6-1.1,2.2-1.7l1.1,4.1
					c-0.9,1.1-2.5,2-4.9,2.5c-0.9,0.1-1.8,0.3-3,0.3c-1.1,0-2.4-0.2-3.6-0.7c-1.3-0.4-2.4-1.1-3.4-2.2c-2.2-2.1-3.3-5-3.3-8.6
					c0-3.9,1.1-6.8,3.4-9c1.9-1.9,4.3-2.9,7-2.9c2.2,0,4,0.5,5.5,1.5c1.6,1.2,2.5,2.9,2.5,4.9c0,2.4-1,4.4-3.1,5.6
					c-1.9,1.1-4.3,1.8-7.2,1.8h-1.3C359.2,435.7,358.9,435.7,358.5,435.7z M358.5,431.8c0.1,0,0.3,0.1,0.7,0.1h0.9
					c2.3,0,3.9-0.5,4.7-1.6c0.3-0.4,0.4-0.9,0.4-1.6c0-0.8-0.2-1.1-0.7-1.5c-0.4-0.4-0.9-0.5-1.5-0.5s-1.1,0.1-1.6,0.4
					s-1,0.7-1.4,1.1C359.2,429,358.6,430.3,358.5,431.8z"/>
			</g>
			<g>
				<path fill="#FFFFFF" d="M379.3,437.6l1.2,3.1c0.3,0.1,0.7,0.1,1.3,0.1s1-0.1,1.3-0.1c0.3-0.1,0.5-0.2,0.8-0.4
					c0.5-0.4,0.8-0.9,0.8-1.4c0-0.7-0.1-1.1-0.4-1.4s-0.7-0.7-1.2-0.9c-0.4-0.2-0.9-0.4-1.4-0.6c-0.5-0.1-0.9-0.3-1.2-0.4
					c-2.2-0.9-3.7-2-4.6-3c-0.9-1.1-1.3-2.3-1.3-3.4c0-1.2,0.2-2.2,0.7-3c0.4-0.9,1-1.5,1.8-2.2c1.6-1.4,3.5-2,5.8-2
					c3,0,5.3,1,7,3.1c0.4,0.5,0.8,1.1,1,1.6l-6.1,2.4l-1.1-2.4c-0.3-0.1-0.7-0.2-1.2-0.2c-1.4,0-2.1,0.7-2.1,1.8
					c0,0.4,0.2,0.9,0.8,1.2c0.5,0.3,1.2,0.7,1.9,1c0.8,0.3,1.5,0.7,2.4,1.1c0.9,0.4,1.6,0.9,2.4,1.4c1.8,1.3,2.6,3,2.6,4.9
					c0,2.2-0.9,4-2.5,5.4c-1.6,1.2-3.5,1.9-5.8,1.9c-2.2,0-4-0.7-5.7-1.8c-1.4-1-2.4-2.2-3.1-3.5L379.3,437.6z"/>
			</g>
			<g>
				<path fill="#FFFFFF" d="M398.8,437.6l1.2,3.1c0.3,0.1,0.7,0.1,1.3,0.1s1-0.1,1.3-0.1c0.3-0.1,0.6-0.2,0.8-0.4
					c0.5-0.4,0.8-0.9,0.8-1.4c0-0.7-0.1-1.1-0.4-1.4s-0.7-0.7-1.2-0.9c-0.4-0.2-0.9-0.4-1.4-0.6c-0.6-0.1-0.9-0.3-1.2-0.4
					c-2.2-0.9-3.7-2-4.6-3c-0.9-1.1-1.3-2.3-1.3-3.4c0-1.2,0.2-2.2,0.7-3c0.4-0.9,1-1.5,1.8-2.2c1.7-1.4,3.5-2,5.8-2
					c3,0,5.3,1,7,3.1c0.4,0.5,0.8,1.1,1,1.6l-6,2.4l-1.1-2.4c-0.3-0.1-0.7-0.2-1.2-0.2c-1.4,0-2.1,0.7-2.1,1.8
					c0,0.4,0.2,0.9,0.8,1.2c0.6,0.3,1.1,0.7,1.9,1s1.5,0.7,2.4,1.1c0.9,0.4,1.6,0.9,2.4,1.4c1.8,1.3,2.6,3,2.6,4.9
					c0,2.2-0.9,4-2.5,5.4c-1.7,1.2-3.5,1.9-5.8,1.9c-2.2,0-4-0.7-5.7-1.8c-1.4-1-2.4-2.2-3.1-3.5L398.8,437.6z"/>
			</g>
		</g>
		<g>
			<g>
				<path fill="#FFFFFF" d="M425.1,415.4v-2.9h8.7l0.1,2.6l-3,0.4v26.3h10.3l1.6-4.8h2.2l-0.9,8h-18.9l-0.3-2.6l2.8-0.4v-26.5
					L425.1,415.4z"/>
			</g>
			<g>
				<path fill="#FFFFFF" d="M453.5,423.8v18.5l2.9,0.7v2.1h-8.3l-0.4-2l2.9-0.7v-16.8l-2.5,0.1l-0.4-2.4l4.7-0.9L453.5,423.8z
					 M448.6,413.4c0-0.7,0.2-1.3,0.7-1.8c0.4-0.4,1.1-0.7,1.8-0.7s1.3,0.2,1.8,0.7c0.4,0.4,0.7,1.1,0.7,1.8s-0.2,1.3-0.7,1.8
					c-0.4,0.4-1.1,0.7-1.8,0.7s-1.3-0.2-1.8-0.7C448.8,414.7,448.6,414.2,448.6,413.4z"/>
			</g>
			<g>
				<path fill="#FFFFFF" d="M470.4,425.2c-2.1,0-4,0.7-5.4,2v15.1l2.9,0.7v2.1h-8.1l-0.3-2l2.6-0.7v-17.1l-2.5,0.1l-0.4-2.2l4.7-0.9
					l1,2c1.8-1.2,3.7-1.9,5.8-1.9s3.7,0.6,5,1.7c1.2,1.1,1.8,2.9,1.8,5.1v13l2.9,0.7v2.1h-8.5l-0.1-2.1l2.9-0.7v-12.6
					C474.5,426.7,473.1,425.2,470.4,425.2z"/>
			</g>
			<g>
				<path fill="#FFFFFF" d="M488.4,412.3v20l8.4-7.7h-2l-0.4-2.2h6.5l0.7,1.3l-7.9,7.4l5.8,11.4l2.4,0.5v2.1h-4.7l-6-11.8l-2.8,2.6
					v6.4l2.6,0.7v2.2h-8.1l-0.2-2.1l2.8-0.7v-28.4h-2.6l-0.4-2.3l4.7-0.8L488.4,412.3z"/>
			</g>
		</g>
	</g>
	<g>
		<g>
			<path fill="#FFFFFF" d="M322.6,345.1c-0.1,0.6-0.1,1.1-0.3,1.7c-0.3,1.5-1.1,3-2.2,4.1c-2,2-3.8,4-5.8,6
				c-0.7,0.7-1.3,1.3-2.1,1.9c-1.2,0.9-2.5,1.4-4,1.6c-2.3,0.3-4.5-0.1-6.4-1.4c-1.1-0.8-2.2-1.8-2.9-3.1c1.1-1.2,2.2-2.3,3.4-3.4
				c0.1,0.3,0.2,0.5,0.3,0.8c1.1,2.5,4.5,3.5,6.9,1.6c0.7-0.4,1.1-1.1,1.6-1.6c1.1-1.1,2.2-2.2,3.2-3.3c0.9-0.9,1.6-1.6,2.4-2.5
				c1-1.2,1.3-2.6,0.9-4.2c-0.7-2.4-3-4-5.4-3.4c-1.1,0.2-1.9,0.8-2.6,1.5c-0.7,0.7-1.2,1.3-2,2c-0.1,0.1-0.2,0.1-0.3,0.1
				c-1.1-0.4-2.2-0.7-3.3-0.7c-0.7,0-1.1,0-1.8,0.1c-0.1,0-0.3,0-0.5,0c0.2-0.3,0.5-0.5,0.8-0.9c1.3-1.4,2.6-2.8,4-4.1
				c1.5-1.6,3.4-2.5,5.6-2.8c0.1,0,0.1,0,0.2-0.1h1.4c0.1,0,0.1,0.1,0.2,0.1c0.9,0.1,1.6,0.3,2.5,0.7c1.4,0.7,2.5,1.4,3.5,2.6
				c0.9,1.1,1.5,2.3,1.9,3.6c0.1,0.6,0.2,1.1,0.3,1.6v1.7L322.6,345.1L322.6,345.1z"/>
		</g>
		<g>
			<path fill="#FFFFFF" d="M287.9,360.3c0.1-0.5,0.1-1.2,0.3-1.6c0.4-1.5,1.2-3,2.2-4.1c2.2-2.2,4.4-4.5,6.6-6.8
				c2.1-2.1,4.5-3.1,7.5-2.8c2.6,0.2,4.7,1.4,6.4,3.6c0.2,0.3,0.4,0.7,0.7,1c-1.1,1.1-2.2,2.4-3.4,3.4c-0.1-0.3-0.2-0.5-0.3-0.8
				c-0.9-2.1-3.4-3.1-5.5-2.4c-0.9,0.3-1.5,0.8-2.1,1.4c-1.1,1.1-2.2,2.2-3.2,3.3c-1.1,1.1-2.2,2.2-3.3,3.4c-1,1.1-1.3,2.6-0.9,4.2
				c0.7,2.5,3.2,4,5.7,3.3c0.9-0.2,1.6-0.8,2.3-1.5c0.7-0.7,1.2-1.3,2-2c0.1-0.1,0.2-0.1,0.4,0c1.3,0.4,2.6,0.7,4,0.7
				c0.3,0,0.7-0.1,1.1-0.1c0.1,0,0.3,0,0.4,0c-0.2,0.3-0.5,0.5-0.8,0.9c-1.3,1.4-2.6,2.8-4,4.1c-0.9,0.9-2,1.6-3.1,2.2
				c-0.8,0.3-1.6,0.5-2.5,0.7c-0.1,0-0.1,0-0.2,0.1h-1.4c-0.1,0-0.1-0.1-0.2-0.1c-0.9-0.1-1.7-0.3-2.5-0.7c-1.3-0.7-2.4-1.4-3.4-2.5
				c-0.9-1.1-1.5-2.3-2-3.7c-0.1-0.5-0.2-1.1-0.3-1.6v-1.4L287.9,360.3L287.9,360.3z"/>
		</g>
		<g>
			<path fill="#FFFFFF" d="M305.2,387.7c-19.4,0-35.1-15.7-35.1-35.1c0-19.4,15.7-35,35.1-35c19.4,0,35.1,15.7,35.1,35
				C340.3,371.9,324.5,387.7,305.2,387.7z M305.2,319.9c-18,0-32.8,14.7-32.8,32.8c0,18.1,14.7,32.8,32.8,32.8
				c18.1,0,32.8-14.7,32.8-32.8C338,334.6,323.3,319.9,305.2,319.9z"/>
		</g>
	</g>
</g>
</svg>
