<?xml version="1.0" encoding="utf-8"?>
<!-- Generator: Adobe Illustrator 18.1.1, SVG Export Plug-In . SVG Version: 6.00 Build 0)  -->
<svg version="1.1" id="Layer_1" xmlns="http://www.w3.org/2000/svg" xmlns:xlink="http://www.w3.org/1999/xlink" x="0px" y="0px"
	 viewBox="175 333 250 80" enable-background="new 175 333 250 80" xml:space="preserve">
<g>
	<g>
		<g>
			<g>
				<path fill="#FFFFFF" d="M252.6,361.7l0.9,3.3c0.9,0.4,1.9,0.6,2.7,0.6c0.9,0,1.6-0.1,2.1-0.3c0.6-0.1,1.1-0.4,1.6-0.7
					c1-0.8,1.5-1.8,1.5-3c0-0.8-0.2-1.6-0.6-2.3c-0.4-0.6-1.1-1.3-2.1-1.8s-2-0.9-2.9-1.3c-0.9-0.4-1.8-0.9-2.6-1.4
					c-0.8-0.5-1.4-1.1-1.9-1.8c-0.5-0.8-0.8-1.6-0.8-2.6s0.2-1.8,0.6-2.5s0.9-1.3,1.5-1.8c1.3-1.1,2.9-1.6,4.8-1.6
					c1.5,0,3.3,0.4,5.1,1.1l0.5,5.1h-1.9l-1.4-3.5c-0.7-0.3-1.4-0.5-2.2-0.5c-0.8,0-1.4,0.1-1.9,0.2c-0.5,0.1-0.9,0.4-1.4,0.6
					c-0.9,0.6-1.3,1.4-1.3,2.2c0,0.9,0.2,1.6,0.6,2.1s0.8,0.9,1.4,1.3c0.6,0.3,1.2,0.7,1.9,0.9c0.7,0.3,1.4,0.6,2.3,1
					c0.8,0.4,1.5,0.9,2.3,1.4c0.6,0.5,1.1,1,1.5,1.6c0.6,0.9,1,2,1,3.1s-0.2,2.1-0.6,3c-0.4,0.8-0.9,1.5-1.5,2c-1.4,1.1-3,1.7-5,1.7
					c-2.2,0-4.1-0.4-5.6-1.1l-0.4-5.1H252.6L252.6,361.7z"/>
			</g>
			<g>
				<path fill="#FFFFFF" d="M268.6,363.2l0-9.5H266l-0.5-1.5l0.3-0.3h3l0-5.7l1.9-0.4l0.2,0.4c0,0.5,0,1,0,1.6v4.1h3.5
					c0.1,0,0.1,0,0.1,0.2v1.6h-3.8v10.9c0,0.6,0.1,1,0.4,1.3c0.3,0.2,0.6,0.3,1.2,0.3s1.3-0.3,2-0.8l0.5,1.7
					c-0.3,0.2-0.6,0.4-1.1,0.7s-1.3,0.4-2.3,0.4s-1.8-0.4-2.3-1.1s-0.8-1.6-0.8-2.6L268.6,363.2L268.6,363.2z"/>
			</g>
			<g>
				<path fill="#FFFFFF" d="M287.1,366.6c-1.1,0.9-2.5,1.4-3.9,1.4c-2.3,0-3.8-0.9-4.6-2.8c-0.3-0.6-0.4-1.5-0.4-2.5v-8.7h-1.8
					l-0.3-1.6l3.4-0.6l0.9,1v9.9c0,1.5,0.4,2.5,1.3,3.1c0.5,0.3,1.1,0.4,1.9,0.4c0.8,0,1.5-0.1,2.1-0.4c0.6-0.3,1.1-0.7,1.4-1.1
					v-10.5h-1.8l-0.3-1.6l3.4-0.6l0.8,1v12.8c0,0.5,0.3,0.8,0.8,0.8l0.6-0.1l0.3,1.2c-0.1,0.1-0.4,0.3-0.7,0.5
					c-0.4,0.2-0.8,0.3-1.2,0.3C288,368,287.4,367.5,287.1,366.6z"/>
			</g>
			<g>
				<path fill="#FFFFFF" d="M300.2,351.8c1.1,0,2.3,0.2,3.3,0.6v-6.8l-2,0.2l-0.3-1.8l3.5-0.6l0.9,1v20.7c0,0.6,0.3,1,0.8,1
					c0.2,0,0.4-0.1,0.7-0.2l0.4,1.4c-0.5,0.4-1.1,0.6-2,0.6s-1.5-0.4-1.8-1.3c-1,0.9-2.1,1.3-3.5,1.3s-2.4-0.3-3.2-0.7
					c-0.9-0.4-1.5-1.1-2.1-1.9c-1-1.5-1.6-3.3-1.6-5.5c0-2.3,0.6-4.3,1.8-5.8C296.3,352.6,298,351.8,300.2,351.8z M303.5,354.8
					c-0.7-0.8-1.7-1.1-3.1-1.1c-1.6,0-3,0.6-3.8,1.9c-0.7,1.1-1,2.5-1,4.2c0,2.8,0.9,4.6,2.5,5.6c0.6,0.4,1.3,0.6,2,0.6
					c1.6,0,2.8-0.6,3.5-1.7L303.5,354.8L303.5,354.8z"/>
			</g>
			<g>
				<path fill="#FFFFFF" d="M321.7,366.7c-1.1,0.9-2.7,1.3-4.6,1.3c-2.4,0-4.1-0.8-5.5-2.3c-1.2-1.5-1.8-3.3-1.8-5.6
					c0-2.4,0.6-4.3,1.9-5.9c1.3-1.6,3-2.5,5.2-2.5c1.4,0,2.6,0.4,3.5,1.2c1,0.8,1.5,1.8,1.5,3.1s-0.3,2.3-0.9,3s-1.4,1.3-2.4,1.7
					c-1.6,0.6-3.8,0.9-6.5,0.9c0.2,1.3,0.8,2.4,1.5,3.2c0.8,0.9,2,1.3,3.5,1.3s2.9-0.4,4-1.2L321.7,366.7z M312.6,359.6
					c2,0,3.4-0.1,4.3-0.4s1.5-0.7,2-1.1c0.5-0.4,0.8-1.1,0.8-1.9s-0.3-1.4-0.9-1.9c-0.5-0.4-1.1-0.5-2-0.5c-0.8,0-1.5,0.1-2,0.5
					c-0.6,0.3-1,0.8-1.5,1.3c-0.8,1.1-1.3,2.5-1.3,4.1L312.6,359.6L312.6,359.6z"/>
			</g>
			<g>
				<path fill="#FFFFFF" d="M332.4,353.7c-1.5,0-2.8,0.5-3.9,1.4v10.8l2,0.5v1.5h-5.8l-0.2-1.5l1.9-0.5v-12.1l-1.8,0.1l-0.3-1.6
					l3.4-0.6l0.8,1.4c1.3-0.9,2.6-1.3,4.1-1.3s2.7,0.4,3.5,1.2c0.9,0.8,1.3,2,1.3,3.6v9.3l2,0.4v1.5h-6l-0.1-1.5l2-0.4v-9
					C335.3,354.7,334.3,353.7,332.4,353.7z"/>
			</g>
			<g>
				<path fill="#FFFFFF" d="M343.3,363.2l0-9.5h-2.7l-0.5-1.5l0.3-0.3h3l0-5.7l1.9-0.4l0.2,0.4c0,0.5,0,1,0,1.6v4.1h3.5
					c0.1,0,0.1,0,0.1,0.2v1.6h-3.8v10.9c0,0.6,0.1,1,0.4,1.3c0.3,0.2,0.6,0.3,1.2,0.3s1.3-0.3,2-0.8l0.5,1.7
					c-0.3,0.2-0.6,0.4-1.1,0.7s-1.3,0.4-2.3,0.4s-1.8-0.4-2.3-1.1s-0.8-1.6-0.8-2.6L343.3,363.2L343.3,363.2z"/>
			</g>
		</g>
		<g>
			<g>
				<path fill="#FFFFFF" d="M257.2,398.3c0.4-0.2,0.6-0.5,0.9-0.9c0.2-0.4,0.3-0.8,0.3-1.2c0-0.5-0.1-0.9-0.3-1.2
					c-0.2-0.3-0.5-0.6-0.8-0.9c-0.4-0.4-1.3-0.8-2.6-1.4c-1.3-0.6-2.3-1.1-3.1-1.5s-1.4-0.9-1.9-1.4c-1.1-1.1-1.8-2.6-1.8-4.4
					c0-1.9,0.8-3.4,2.3-4.7c1.4-1.1,3.3-1.7,5.6-1.7c2.1,0,4.2,0.3,6.3,0.9l0.5,6.4h-2.8l-1.7-3.6c-0.8-0.1-1.8-0.2-2.7-0.2
					c-0.9,0-1.6,0.3-2.2,0.8s-0.8,1.1-0.8,1.6c0,0.6,0.1,1,0.4,1.4s0.6,0.6,1.1,0.9c0.6,0.4,1.4,0.8,2.6,1.4c1.2,0.6,2.2,1.1,3,1.6
					c0.8,0.4,1.4,0.9,1.8,1.5c1,1,1.5,2.3,1.5,3.6c0,1.4-0.3,2.6-0.8,3.4c-0.5,0.8-1.1,1.6-1.9,2.1c-1.5,1.1-3.4,1.6-5.7,1.6
					c-2.1,0-4.4-0.5-6.9-1.5l0.6-6.4l2.8,0.3l0.3,3.7c0.3,0.1,0.7,0.1,1.2,0.3c0.5,0.1,1.1,0.2,1.6,0.2c0.6,0,1.1-0.1,1.6-0.1
					C256.4,398.7,256.8,398.6,257.2,398.3z"/>
			</g>
			<g>
				<path fill="#FFFFFF" d="M278.9,402.5c-1.3,0-2.3-0.6-2.7-1.6c-0.5,0.6-1.1,1-2,1.2c-0.8,0.3-1.5,0.4-2.3,0.4
					c-1.6,0-2.9-0.4-3.8-1.2c-1-0.8-1.4-2.1-1.4-3.8v-8.4h-1.7l-0.4-2.3l5-0.9l1.1,1.3v9.6c0,0.9,0.2,1.5,0.6,1.9
					c0.4,0.4,1,0.7,1.6,0.7s1.3-0.2,1.8-0.6s0.9-0.8,1-1.2V389l-1.5,0.1l-0.4-2.3l4.8-0.9l1.1,1.3v11.7c0,0.5,0.2,0.8,0.5,0.8l0.5,0
					l0.6,1.9c-0.1,0.2-0.5,0.4-0.9,0.7C280.2,402.4,279.6,402.5,278.9,402.5z"/>
			</g>
			<g>
				<path fill="#FFFFFF" d="M295.9,400.6c-1.2,1.3-3,1.9-5.4,1.9c-2,0-3.6-0.7-5-1.9c-1.6-1.5-2.4-3.5-2.4-6c0-3,0.8-5.3,2.4-6.9
					c1.3-1.2,2.9-1.8,4.9-1.8c1.7,0,3,0.5,4.1,1.3c0.5,0.4,1,1,1.5,1.7l-4,2.2l-1.5-2c-1,0-1.9,0.5-2.4,1.5
					c-0.5,0.9-0.9,2.3-0.9,3.9c0,2.3,0.7,3.8,2.1,4.6c0.5,0.3,1,0.4,1.6,0.4s1,0,1.5-0.2c0.4-0.1,0.8-0.3,1.1-0.4s0.6-0.4,0.8-0.6
					c0.2-0.2,0.4-0.3,0.5-0.4c0,0.1,0.1,0.4,0.2,0.6s0.2,0.5,0.3,0.9c0.1,0.3,0.1,0.6,0.3,0.9S295.9,400.5,295.9,400.6z"/>
			</g>
			<g>
				<path fill="#FFFFFF" d="M310.2,400.6c-1.2,1.3-3,1.9-5.4,1.9c-2,0-3.6-0.7-5-1.9c-1.6-1.5-2.4-3.5-2.4-6c0-3,0.8-5.3,2.4-6.9
					c1.3-1.2,2.9-1.8,4.9-1.8c1.7,0,3,0.5,4.1,1.3c0.5,0.4,1,1,1.5,1.7l-4,2.2l-1.5-2c-1,0-1.9,0.5-2.4,1.5
					c-0.5,0.9-0.9,2.3-0.9,3.9c0,2.3,0.7,3.8,2.1,4.6c0.5,0.3,1,0.4,1.6,0.4s1,0,1.5-0.2c0.4-0.1,0.8-0.3,1.1-0.4
					c0.3-0.1,0.6-0.4,0.8-0.6c0.2-0.2,0.4-0.3,0.5-0.4c0,0.1,0.1,0.4,0.2,0.6c0.1,0.3,0.2,0.5,0.3,0.9c0.1,0.3,0.1,0.6,0.3,0.9
					S310.2,400.5,310.2,400.6z"/>
			</g>
			<g>
				<path fill="#FFFFFF" d="M316,395.7c0.3,2.4,1.6,3.6,4,3.6c1,0,1.9-0.2,2.5-0.6s1.1-0.8,1.5-1.1l0.8,2.9
					c-0.6,0.9-1.8,1.4-3.5,1.8c-0.6,0.1-1.3,0.2-2.1,0.2c-0.9,0-1.7-0.1-2.6-0.5s-1.7-0.9-2.5-1.5c-1.6-1.5-2.4-3.6-2.4-6.1
					c0-2.8,0.8-4.9,2.4-6.5c1.4-1.3,3-2,5-2c1.5,0,2.9,0.4,3.9,1.1c1.2,0.8,1.8,2,1.8,3.5c0,1.8-0.8,3.1-2.2,4
					c-1.3,0.8-3,1.3-5.1,1.3h-0.9C316.6,395.8,316.3,395.8,316,395.7z M316.1,392.9c0.1,0,0.3,0.1,0.5,0.1h0.6
					c1.6,0,2.8-0.4,3.4-1.2c0.2-0.3,0.4-0.7,0.4-1.2c0-0.5-0.1-0.8-0.5-1.1c-0.3-0.3-0.6-0.4-1-0.4s-0.9,0.1-1.2,0.3
					c-0.4,0.2-0.7,0.5-1,0.9C316.5,390.9,316.2,391.8,316.1,392.9z"/>
			</g>
			<g>
				<path fill="#FFFFFF" d="M330.9,397l0.9,2.2c0.2,0.1,0.5,0.1,0.9,0.1s0.7,0,0.9-0.1c0.2-0.1,0.4-0.1,0.5-0.3
					c0.4-0.3,0.5-0.6,0.5-1c0-0.4-0.1-0.8-0.4-1s-0.5-0.5-0.9-0.6s-0.7-0.3-1-0.4c-0.4-0.1-0.6-0.2-0.9-0.4
					c-1.5-0.6-2.6-1.4-3.3-2.1s-1-1.6-1-2.5c0-0.8,0.1-1.5,0.5-2.1c0.3-0.6,0.7-1.1,1.3-1.6c1.1-0.9,2.5-1.4,4.1-1.4
					c2.1,0,3.8,0.8,5,2.2c0.3,0.4,0.5,0.8,0.8,1.1l-4.3,1.7l-0.8-1.7c-0.2-0.1-0.5-0.1-0.8-0.1c-1,0-1.5,0.4-1.5,1.3
					c0,0.4,0.2,0.6,0.5,0.9c0.4,0.3,0.8,0.5,1.4,0.8c0.5,0.3,1.1,0.5,1.8,0.8c0.6,0.3,1.2,0.7,1.8,1.1c1.3,0.9,1.9,2.1,1.9,3.6
					c0,1.6-0.6,2.8-1.8,3.8c-1.1,0.9-2.5,1.3-4.1,1.3c-1.5,0-2.9-0.4-4-1.3c-1-0.7-1.8-1.5-2.2-2.5L330.9,397z"/>
			</g>
			<g>
				<path fill="#FFFFFF" d="M344.7,397l0.9,2.2c0.2,0.1,0.5,0.1,0.9,0.1s0.7,0,0.9-0.1c0.2-0.1,0.4-0.1,0.5-0.3
					c0.4-0.3,0.5-0.6,0.5-1c0-0.4-0.1-0.8-0.4-1s-0.5-0.5-0.9-0.6s-0.7-0.3-1-0.4c-0.4-0.1-0.6-0.2-0.9-0.4
					c-1.5-0.6-2.6-1.4-3.3-2.1s-1-1.6-1-2.5c0-0.8,0.1-1.5,0.5-2.1c0.3-0.6,0.7-1.1,1.3-1.6c1.1-0.9,2.5-1.4,4.1-1.4
					c2.1,0,3.8,0.8,5,2.2c0.3,0.4,0.5,0.8,0.8,1.1l-4.3,1.7l-0.8-1.7c-0.2-0.1-0.5-0.1-0.8-0.1c-1,0-1.5,0.4-1.5,1.3
					c0,0.4,0.2,0.6,0.5,0.9c0.4,0.3,0.8,0.5,1.4,0.8c0.5,0.3,1.1,0.5,1.8,0.8c0.6,0.3,1.2,0.7,1.8,1.1c1.3,0.9,1.9,2.1,1.9,3.6
					c0,1.6-0.6,2.8-1.8,3.8c-1.1,0.9-2.5,1.3-4.1,1.3c-1.5,0-2.9-0.4-4-1.3c-1-0.7-1.8-1.5-2.2-2.5L344.7,397z"/>
			</g>
		</g>
		<g>
			<g>
				<path fill="#FFFFFF" d="M363.5,381.2v-2h6.3l0.1,1.9l-2.1,0.3v18.8h7.4l1.1-3.5h1.6l-0.6,5.8h-13.5l-0.3-1.9l1.9-0.3v-18.9
					L363.5,381.2z"/>
			</g>
			<g>
				<path fill="#FFFFFF" d="M383.6,387.2v13.1l2,0.5v1.5h-5.9l-0.3-1.5l2-0.5v-12l-1.8,0.2l-0.3-1.7l3.3-0.6L383.6,387.2z
					 M380.3,379.9c0-0.5,0.1-0.9,0.5-1.3c0.4-0.3,0.8-0.5,1.3-0.5s0.9,0.2,1.3,0.5c0.4,0.4,0.5,0.8,0.5,1.3s-0.1,0.9-0.5,1.3
					c-0.4,0.4-0.8,0.5-1.3,0.5s-0.9-0.1-1.3-0.5C380.4,380.8,380.3,380.4,380.3,379.9z"/>
			</g>
			<g>
				<path fill="#FFFFFF" d="M395.8,388.2c-1.5,0-2.8,0.4-3.9,1.4v10.8l2,0.5v1.5h-5.8l-0.2-1.5l1.9-0.5v-12.1l-1.8,0.1l-0.3-1.6
					l3.4-0.6l0.8,1.4c1.3-0.9,2.6-1.3,4.1-1.3s2.7,0.4,3.5,1.2c0.9,0.8,1.3,2.1,1.3,3.7v9.3l2,0.4v1.5h-6l-0.1-1.5l2-0.4v-9
					C398.6,389.3,397.7,388.2,395.8,388.2z"/>
			</g>
			<g>
				<path fill="#FFFFFF" d="M408.6,379v14.3l5.9-5.5h-1.4l-0.3-1.6h4.6l0.5,0.9l-5.6,5.3l4.1,8.1l1.8,0.4v1.5h-3.3l-4.3-8.4l-2,1.9
					v4.5l1.9,0.5v1.5h-5.8l-0.1-1.5l2-0.5v-20.2h-1.9l-0.3-1.6l3.4-0.5L408.6,379z"/>
			</g>
		</g>
	</g>
	<g>
		<g>
			<path fill="#FFFFFF" d="M219.1,367.6c-0.1,0.4-0.1,0.8-0.2,1.1c-0.3,1.1-0.8,2.1-1.6,2.9c-1.4,1.5-2.8,2.9-4.1,4.3
				c-0.4,0.5-0.9,1-1.4,1.4c-0.9,0.6-1.8,1-2.9,1.1c-1.6,0.3-3.1-0.1-4.6-1c-0.9-0.5-1.5-1.3-2-2.2c0.8-0.8,1.6-1.6,2.4-2.4
				c0.1,0.2,0.1,0.4,0.3,0.6c0.9,1.8,3.2,2.5,4.9,1.1c0.4-0.3,0.8-0.8,1.1-1.1c0.8-0.8,1.6-1.6,2.3-2.4c0.6-0.6,1.2-1.1,1.8-1.8
				c0.7-0.9,0.9-1.9,0.6-3c-0.4-1.7-2.1-2.8-3.8-2.4c-0.8,0.1-1.4,0.6-1.9,1.1c-0.4,0.5-0.9,1-1.4,1.4c-0.1,0.1-0.1,0.1-0.2,0.1
				c-0.8-0.3-1.6-0.5-2.4-0.5c-0.4,0-0.9,0-1.3,0c-0.1,0-0.3,0-0.4,0c0.2-0.2,0.4-0.4,0.6-0.6c0.9-0.9,1.9-1.9,2.8-2.9
				c1.1-1.1,2.4-1.8,4-2c0.1,0,0.1,0,0.2,0h1.1c0.1,0,0.1,0,0.2,0c0.6,0.1,1.2,0.2,1.8,0.5c1,0.4,1.8,1,2.5,1.8
				c0.6,0.8,1.1,1.7,1.4,2.6c0.1,0.4,0.1,0.8,0.3,1.2v1.1H219.1z"/>
		</g>
		<g>
			<path fill="#FFFFFF" d="M194.4,378.4c0.1-0.4,0.1-0.8,0.3-1.2c0.3-1.1,0.8-2.1,1.6-2.9c1.6-1.6,3.1-3.2,4.7-4.8
				c1.4-1.5,3.3-2.2,5.3-2c1.9,0.2,3.4,1,4.6,2.6c0.1,0.2,0.3,0.5,0.4,0.7c-0.9,0.8-1.6,1.7-2.4,2.5c-0.1-0.2-0.1-0.4-0.3-0.6
				c-0.7-1.5-2.4-2.2-3.9-1.7c-0.6,0.2-1.1,0.5-1.5,1c-0.8,0.8-1.6,1.5-2.3,2.3c-0.8,0.8-1.6,1.6-2.4,2.5c-0.8,0.9-0.9,1.9-0.6,3
				c0.4,1.8,2.3,2.8,4.1,2.3c0.6-0.2,1.2-0.6,1.6-1s0.9-1,1.4-1.4c0.1-0.1,0.2-0.1,0.3-0.1c0.9,0.4,1.9,0.5,2.9,0.5
				c0.3,0,0.5,0,0.8,0c0.1,0,0.2,0,0.4,0c-0.2,0.2-0.4,0.4-0.6,0.6c-0.9,0.9-1.9,1.9-2.9,2.9c-0.6,0.6-1.4,1.1-2.2,1.5
				c-0.6,0.3-1.2,0.4-1.8,0.5c-0.1,0-0.1,0-0.2,0h-1.1c-0.1,0-0.1,0-0.2,0c-0.6-0.1-1.3-0.2-1.8-0.5c-0.9-0.4-1.8-1-2.4-1.9
				c-0.6-0.8-1.1-1.6-1.4-2.6c-0.1-0.4-0.1-0.8-0.3-1.2V378.4z"/>
		</g>
		<g>
			<path fill="#FFFFFF" d="M206.7,397.9c-13.8,0-24.9-11.2-24.9-24.9S193,348,206.7,348s24.9,11.2,24.9,24.9
				S220.5,397.9,206.7,397.9z M206.7,349.6c-12.9,0-23.4,10.5-23.4,23.4c0,12.9,10.4,23.3,23.4,23.3s23.4-10.4,23.4-23.3
				C230.1,360.1,219.6,349.6,206.7,349.6z"/>
		</g>
	</g>
</g>
</svg>
